<svg width="1024" height="1024" viewBox="0 0 1024 1024" fill="none" xmlns="http://www.w3.org/2000/svg">
<rect width="1024" height="1024" fill="white"/>
<g filter="url(#filter0_i_70_7)">
<path d="M733.321 587.157H455.906C439.219 586.462 237.589 606.625 235.503 432.806C231.779 569.68 320.728 680.303 455.211 706.049C504.881 715.559 583.141 696.49 583.141 696.49C689.973 656.899 733.321 587.157 733.321 587.157Z" fill="url(#paint0_linear_70_7)"/>
<path d="M294.602 693.534C353.039 719.26 455.211 718.564 455.211 718.564C512.919 719.955 546.55 710.051 583.141 696.49C583.141 696.49 504.881 715.559 455.211 706.049C320.728 680.303 231.779 569.68 235.503 432.806C238.998 395.261 261.942 314.609 427.4 322.952C427.4 322.952 438.068 227.001 516.634 202.666C280.635 189.667 117.638 251.456 113.134 432.806C111.564 496.041 123.59 531.553 157.632 588.548C191.674 645.542 232.918 666.38 294.602 693.534Z" fill="url(#paint1_linear_70_7)"/>
<path d="M235.503 432.806C237.589 606.625 439.219 586.462 455.906 587.157H733.321C733.321 587.157 689.973 656.899 583.141 696.49M235.503 432.806C231.779 569.68 320.728 680.303 455.211 706.049C504.881 715.559 583.141 696.49 583.141 696.49M235.503 432.806C238.998 395.261 261.942 314.609 427.4 322.952C427.4 322.952 438.068 227.001 516.634 202.666C280.635 189.667 117.638 251.456 113.134 432.806C111.564 496.041 123.59 531.553 157.632 588.548C191.674 645.542 232.918 666.38 294.602 693.534C353.039 719.26 455.211 718.564 455.211 718.564C512.919 719.955 546.55 710.051 583.141 696.49" stroke="url(#paint2_linear_70_7)"/>
<path fill-rule="evenodd" clip-rule="evenodd" d="M284.516 749.68C284.516 749.68 401.846 829.379 571.493 823.122C679.675 821.311 761.999 801.302 837.784 736.641C883.243 688.869 914.819 650.197 910.788 584.376C907.634 532.862 890.922 500.579 853.08 465.483C818.612 433.517 785.305 428.512 743.351 422.209C734.037 420.809 724.298 419.346 714.025 417.509C694.198 413.965 681.347 412.294 663.845 411.206C659.592 410.773 655.446 410.557 651.45 410.557C655.892 410.754 659.982 410.966 663.845 411.206C711.383 416.051 772.274 448.065 787.029 509.286C793.91 537.838 791.896 566.994 789.81 584.376C788.42 652.513 680.846 734.377 572.884 762.367C464.922 790.356 284.516 749.68 284.516 749.68Z" fill="url(#paint3_linear_70_7)"/>
<path d="M651.45 410.557C614.6 409.166 593.419 395.262 593.047 366.754C592.673 338.132 608.343 320.866 650.755 321.561H878.089V202.729L652.841 202.669C652.841 202.669 606.257 202.349 571.493 208.927C495.708 221.441 453.546 289.593 452.601 366.754C455.382 450.883 487.365 477.999 519.348 502.333C600 548.917 783.553 499.552 789.81 584.376C791.896 566.994 793.91 537.838 787.029 509.286C772.274 448.065 711.383 416.051 663.845 411.206C659.982 410.966 655.892 410.754 651.45 410.557Z" fill="url(#paint4_linear_70_7)"/>
<path d="M651.45 410.557C614.6 409.166 593.419 395.262 593.047 366.754C592.673 338.132 608.343 320.866 650.755 321.561H878.089V202.729L652.841 202.669C652.841 202.669 606.257 202.349 571.493 208.927C495.708 221.441 453.546 289.593 452.601 366.754C455.382 450.883 487.365 477.999 519.348 502.333C600 548.917 783.553 499.552 789.81 584.376M651.45 410.557C655.446 410.557 659.592 410.773 663.845 411.206M651.45 410.557C655.892 410.754 659.982 410.966 663.845 411.206M789.81 584.376C791.896 566.994 793.91 537.838 787.029 509.286C772.274 448.065 711.383 416.051 663.845 411.206M789.81 584.376C788.42 652.513 680.846 734.377 572.884 762.367C464.922 790.356 284.516 749.68 284.516 749.68C284.516 749.68 401.846 829.379 571.493 823.122C679.675 821.311 761.999 801.302 837.784 736.641C883.243 688.869 914.819 650.197 910.788 584.376C907.634 532.862 890.922 500.579 853.08 465.483C818.612 433.517 785.305 428.512 743.351 422.209C734.037 420.809 724.298 419.346 714.025 417.509C694.198 413.965 681.347 412.294 663.845 411.206" stroke="url(#paint5_linear_70_7)"/>
</g>
<defs>
<filter id="filter0_i_70_7" x="112.5" y="200.5" width="801.135" height="626.472" filterUnits="userSpaceOnUse" color-interpolation-filters="sRGB">
<feFlood flood-opacity="0" result="BackgroundImageFix"/>
<feBlend mode="normal" in="SourceGraphic" in2="BackgroundImageFix" result="shape"/>
<feColorMatrix in="SourceAlpha" type="matrix" values="0 0 0 0 0 0 0 0 0 0 0 0 0 0 0 0 0 0 127 0" result="hardAlpha"/>
<feOffset dx="2" dy="3"/>
<feGaussianBlur stdDeviation="8"/>
<feComposite in2="hardAlpha" operator="arithmetic" k2="-1" k3="1"/>
<feColorMatrix type="matrix" values="0 0 0 0 0 0 0 0 0 0 0 0 0 0 0 0 0 0 0.18 0"/>
<feBlend mode="normal" in2="shape" result="effect1_innerShadow_70_7"/>
</filter>
<linearGradient id="paint0_linear_70_7" x1="423.161" y1="201" x2="423.161" y2="718.695" gradientUnits="userSpaceOnUse">
<stop stop-color="#199FD6"/>
<stop offset="0.483002" stop-color="#1792D8"/>
<stop offset="0.966005" stop-color="#1378D4"/>
</linearGradient>
<linearGradient id="paint1_linear_70_7" x1="428.095" y1="204.06" x2="428.095" y2="724.231" gradientUnits="userSpaceOnUse">
<stop stop-color="#8CF3C7"/>
<stop offset="0.196734" stop-color="#3FE6DD"/>
<stop offset="0.393859" stop-color="#2FC8EE"/>
<stop offset="0.615025" stop-color="#2CAAF1"/>
<stop offset="0.802535" stop-color="#1F86E8"/>
<stop offset="1" stop-color="#1475E3"/>
</linearGradient>
<linearGradient id="paint2_linear_70_7" x1="428.095" y1="204.06" x2="428.095" y2="724.231" gradientUnits="userSpaceOnUse">
<stop stop-color="#15B8A6"/>
<stop offset="1" stop-color="#248CE9"/>
</linearGradient>
<linearGradient id="paint3_linear_70_7" x1="599.825" y1="202.667" x2="599.825" y2="813.499" gradientUnits="userSpaceOnUse">
<stop stop-color="#8DEFC7"/>
<stop offset="0.5" stop-color="#97EDCA"/>
<stop offset="0.75" stop-color="#71DEC4"/>
<stop offset="0.875" stop-color="#44C2B7"/>
<stop offset="0.9375" stop-color="#21ABB0"/>
<stop offset="1" stop-color="#0A8AA6"/>
</linearGradient>
<linearGradient id="paint4_linear_70_7" x1="597.825" y1="202.667" x2="597.825" y2="823.472" gradientUnits="userSpaceOnUse">
<stop stop-color="#A7F5CD"/>
<stop offset="0.139038" stop-color="#69E4C7"/>
<stop offset="0.283277" stop-color="#1EC1B9"/>
<stop offset="0.788111" stop-color="#19A393"/>
</linearGradient>
<linearGradient id="paint5_linear_70_7" x1="597.825" y1="202.667" x2="597.825" y2="823.472" gradientUnits="userSpaceOnUse">
<stop stop-color="#99F1CC"/>
<stop offset="0.5" stop-color="#5FE0C6"/>
<stop offset="0.625" stop-color="#1DB9AF"/>
<stop offset="0.6875" stop-color="#92EBC9"/>
<stop offset="0.75" stop-color="#58CFBD"/>
<stop offset="1" stop-color="#1396AA"/>
</linearGradient>
</defs>
</svg>
